<mxfile host="app.diagrams.net" modified="2024-03-11T19:12:10.644Z" agent="Mozilla/5.0 (Windows NT 10.0; Win64; x64) AppleWebKit/537.36 (KHTML, like Gecko) Chrome/122.0.0.0 Safari/537.36" version="24.0.4" etag="-eSRcty59-YeS2vsKlHV" type="github">
  <diagram name="Page-1" id="fX9RrKgvH6SyHoi_5Rdd">
    <mxGraphModel>
      <root>
        <mxCell id="0" />
        <mxCell id="1" parent="0" />
      </root>
    </mxGraphModel>
  </diagram>
</mxfile>
